<svg version="1.1" id="Layer_1" xmlns="http://www.w3.org/2000/svg" xmlns:xlink="http://www.w3.org/1999/xlink" x="0px" y="0px"
	 width="100%" viewBox="0 0 160 160" enable-background="new 0 0 160 160" xml:space="preserve">
<path fill="#000000" opacity="1.000000" stroke="none" 
	d="
M94.000000,161.000000 
	C62.666672,161.000000 31.833342,161.000000 1.000008,161.000000 
	C1.000005,107.666679 1.000005,54.333355 1.000003,1.000023 
	C54.333317,1.000015 107.666634,1.000015 160.999969,1.000008 
	C160.999969,54.333313 160.999969,107.666626 160.999985,160.999969 
	C138.833328,161.000000 116.666664,161.000000 94.000000,161.000000 
M90.943161,20.991224 
	C90.943161,20.991224 90.989525,20.945312 90.078903,20.987715 
	C87.176743,20.987715 84.274582,20.987715 81.143402,20.987715 
	C81.143402,24.747311 81.143402,27.838289 81.055122,31.841452 
	C81.029953,34.887417 81.004776,37.933380 80.070625,40.992886 
	C77.023094,41.043011 73.975563,41.093136 70.005936,41.032665 
	C63.814625,41.032665 57.623310,41.032665 50.869461,41.032665 
	C50.869461,44.689682 50.869461,47.773384 49.992786,50.977535 
	C47.009991,51.037773 44.027199,51.098015 40.132965,51.036427 
	C37.226749,51.036427 34.320530,51.036427 30.881784,51.036427 
	C30.881784,54.706448 30.881784,57.795353 29.986258,60.973404 
	C27.089342,60.973404 24.192425,60.973404 21.143349,60.973404 
	C21.143349,71.487816 21.143349,81.208061 21.054066,91.869759 
	C21.036043,94.858955 21.004478,97.848145 21.002487,100.837349 
	C20.995958,110.636276 21.000090,110.636276 30.937122,112.086700 
	C30.958082,114.897324 30.995020,117.707939 30.997122,120.518578 
	C31.004612,130.537582 31.000130,130.537582 40.964733,132.097610 
	C41.073051,142.729156 40.575417,140.691559 49.819992,141.077591 
	C50.152397,141.091476 50.483349,141.140076 50.916321,142.050781 
	C51.161995,151.256470 51.161999,151.256592 60.571255,150.894058 
	C60.735611,150.887726 60.899372,150.865997 61.988667,150.943756 
	C71.638000,150.912979 81.287331,150.882217 91.879875,150.933258 
	C94.847473,150.955505 97.815056,150.994537 100.782669,150.996933 
	C110.653900,151.004898 110.653908,150.999847 112.050697,141.083694 
	C120.722878,140.849762 120.722168,140.849731 121.081833,132.142105 
	C121.095215,131.818054 121.149658,131.495697 122.065781,131.081299 
	C123.047760,131.054977 124.048798,130.891769 125.008492,131.025436 
	C129.782593,131.690460 131.402405,129.635376 131.081909,124.933632 
	C130.771347,120.377930 131.141769,115.775810 132.089188,111.091286 
	C133.081680,111.061668 134.094955,110.887436 135.063156,111.026703 
	C140.039825,111.742546 141.283524,109.367645 141.081848,104.763924 
	C140.734421,96.833328 140.900742,88.880226 140.943710,80.011688 
	C140.961136,75.211273 140.833740,70.404449 141.045578,65.612625 
	C141.193237,62.272579 140.148651,60.507069 136.589584,61.011520 
	C132.362106,61.610706 130.280289,60.094536 130.988037,55.586399 
	C131.599518,51.691368 129.554779,50.813564 126.067177,50.941933 
	C121.112038,51.124306 116.141556,50.889923 111.067307,49.951317 
	C111.044846,48.790852 110.861641,47.606735 111.028290,46.474098 
	C111.682465,42.028168 109.781570,40.617424 105.443024,40.922562 
	C100.657890,41.259113 95.829933,40.986717 91.007133,40.080502 
	C91.070389,37.089657 91.133652,34.098812 92.077126,31.047491 
	C101.265701,30.906406 101.265839,30.906401 100.889618,21.439066 
	C100.883087,21.274847 100.861015,21.111244 100.942986,20.049473 
	C100.951088,18.060341 101.308807,15.983656 100.840553,14.113822 
	C100.543816,12.928934 99.140488,11.351278 98.021133,11.153908 
	C91.964500,10.085976 91.060074,10.959796 90.997147,16.960426 
	C90.983246,18.286224 90.937508,19.611685 90.943161,20.991224 
z"/>
<path fill="#752802" opacity="1.000000" stroke="none" 
	d="
M111.177635,50.833614 
	C116.141556,50.889923 121.112038,51.124306 126.067177,50.941933 
	C129.554779,50.813564 131.599518,51.691368 130.988037,55.586399 
	C130.280289,60.094536 132.362106,61.610706 136.589584,61.011520 
	C140.148651,60.507069 141.193237,62.272579 141.045578,65.612625 
	C140.833740,70.404449 140.961136,75.211273 140.460938,80.488983 
	C137.053238,80.986763 134.128342,81.007240 131.132568,80.577026 
	C131.061691,77.253365 131.061691,74.380417 131.061691,70.872879 
	C127.247787,70.872879 124.190681,70.872879 121.087044,70.427475 
	C121.040520,67.081177 121.040520,64.180283 121.040520,60.866558 
	C117.089966,60.866558 114.108604,60.866558 111.082993,60.426483 
	C110.977463,57.039471 110.916191,54.092533 110.935486,51.067497 
	C111.016068,50.989395 111.177635,50.833614 111.177635,50.833614 
z"/>
<path fill="#752802" opacity="1.000000" stroke="none" 
	d="
M90.936668,150.851440 
	C81.287331,150.882217 71.638000,150.912979 61.511139,150.456970 
	C61.009537,147.002029 60.985462,144.033859 61.414970,141.042847 
	C64.880867,140.969727 67.893181,140.919464 71.379158,140.904358 
	C78.263199,141.041336 84.673584,141.143158 91.065643,141.680267 
	C91.010437,145.027527 90.973549,147.939484 90.936668,150.851440 
z"/>
<path fill="#541209" opacity="1.000000" stroke="none" 
	d="
M131.203430,81.027725 
	C134.128342,81.007240 137.053238,80.986763 140.414810,80.951424 
	C140.900742,88.880226 140.734421,96.833328 141.081848,104.763924 
	C141.283524,109.367645 140.039825,111.742546 135.063156,111.026703 
	C134.094955,110.887436 133.081680,111.061668 131.567474,111.064255 
	C131.045776,111.037231 130.879196,110.879593 130.925125,110.434082 
	C130.926498,106.983391 130.881943,103.978203 130.904144,100.510529 
	C130.934799,93.699707 130.898682,87.351379 130.944153,81.059380 
	C131.025726,81.115700 131.203430,81.027725 131.203430,81.027725 
z"/>
<path fill="#B26411" opacity="1.000000" stroke="none" 
	d="
M21.143349,90.928307 
	C21.143349,81.208061 21.143349,71.487816 21.143349,60.973404 
	C24.192425,60.973404 27.089342,60.973404 30.518959,61.013100 
	C31.051662,61.052799 31.221460,61.221420 31.163368,61.671379 
	C31.030285,71.781410 30.955297,81.441490 30.438084,91.074753 
	C27.045021,91.008057 24.094185,90.968178 21.143349,90.928307 
z"/>
<path fill="#541209" opacity="1.000000" stroke="none" 
	d="
M91.408272,150.892349 
	C90.973549,147.939484 91.010437,145.027527 91.087585,141.577240 
	C91.127861,141.038925 90.993561,140.876770 91.443878,140.923553 
	C94.904152,140.932068 97.914124,140.893784 101.377792,140.900269 
	C104.840500,140.916306 107.849503,140.887589 110.937134,140.940277 
	C111.015747,141.021713 111.172501,141.185028 111.172501,141.185028 
	C110.653908,150.999847 110.653900,151.004898 100.782669,150.996933 
	C97.815056,150.994537 94.847473,150.955505 91.408272,150.892349 
z"/>
<path fill="#541209" opacity="1.000000" stroke="none" 
	d="
M131.129440,111.115654 
	C131.141769,115.775810 130.771347,120.377930 131.081909,124.933632 
	C131.402405,129.635376 129.782593,131.690460 125.008492,131.025436 
	C124.048798,130.891769 123.047760,131.054977 121.543655,131.048615 
	C121.021523,131.015945 120.858513,130.858856 120.902809,130.414032 
	C120.916603,126.954071 120.886101,123.938934 120.910416,120.480515 
	C121.017609,117.063828 121.069984,114.090424 121.563683,111.072578 
	C124.963066,110.978615 127.921135,110.929100 130.879196,110.879593 
	C130.879196,110.879593 131.045776,111.037231 131.129440,111.115654 
z"/>
<path fill="#752802" opacity="1.000000" stroke="none" 
	d="
M40.925018,131.221680 
	C31.000130,130.537582 31.004612,130.537582 30.997122,120.518578 
	C30.995020,117.707939 30.958082,114.897324 30.963047,111.551163 
	C30.988972,111.015633 31.145113,110.854408 31.588871,110.905090 
	C34.930984,110.955780 37.829346,110.955780 41.130817,110.955780 
	C41.130817,114.936203 41.130817,117.920853 41.096062,121.359741 
	C41.066830,124.803566 41.072350,127.793167 41.039757,130.892517 
	C41.001640,131.002289 40.925018,131.221680 40.925018,131.221680 
z"/>
<path fill="#752802" opacity="1.000000" stroke="none" 
	d="
M21.098707,91.399033 
	C24.094185,90.968178 27.045021,91.008057 30.480120,91.534576 
	C31.024626,98.298950 31.084869,104.576683 31.145113,110.854408 
	C31.145113,110.854408 30.988972,111.015633 30.911135,111.096481 
	C21.000090,110.636276 20.995958,110.636276 21.002487,100.837349 
	C21.004478,97.848145 21.036043,94.858955 21.098707,91.399033 
z"/>
<path fill="#B26411" opacity="1.000000" stroke="none" 
	d="
M50.869461,50.857082 
	C50.869461,47.773384 50.869461,44.689682 50.869461,41.032665 
	C57.623310,41.032665 63.814625,41.032665 70.485420,41.534954 
	C70.920609,45.055748 70.876305,48.074257 70.387718,51.069790 
	C66.947426,51.073322 63.951420,51.099827 60.506611,51.072952 
	C57.021938,51.113438 53.986076,51.207302 50.913345,51.193180 
	C50.876484,51.085190 50.869461,50.857082 50.869461,50.857082 
z"/>
<path fill="#752802" opacity="1.000000" stroke="none" 
	d="
M91.020630,40.979576 
	C95.829933,40.986717 100.657890,41.259113 105.443024,40.922562 
	C109.781570,40.617424 111.682465,42.028168 111.028290,46.474098 
	C110.861641,47.606735 111.044846,48.790852 111.122467,50.392464 
	C111.177635,50.833614 111.016068,50.989395 110.492065,51.016754 
	C106.966476,51.082542 103.964897,51.120968 100.514236,51.097221 
	C97.041008,51.012939 94.016853,50.990829 90.994232,50.516808 
	C90.993645,47.046795 90.991531,44.028690 90.996948,41.003075 
	C91.004471,40.995571 91.020630,40.979576 91.020630,40.979576 
z"/>
<path fill="#541209" opacity="1.000000" stroke="none" 
	d="
M50.814976,141.172516 
	C50.483349,141.140076 50.152397,141.091476 49.819992,141.077591 
	C40.575417,140.691559 41.073051,142.729156 40.944878,131.659637 
	C40.925018,131.221680 41.001640,131.002289 41.483856,130.960480 
	C44.971607,130.954132 47.977142,130.989594 50.991692,131.012238 
	C51.000706,130.999390 50.974895,131.017288 50.982773,131.466949 
	C51.040817,134.897263 51.090988,137.877899 51.059723,140.937149 
	C50.978291,141.015762 50.814976,141.172516 50.814976,141.172516 
z"/>
<path fill="#DBA213" opacity="1.000000" stroke="none" 
	d="
M41.044403,51.158257 
	C44.027199,51.098015 47.009991,51.037773 50.431122,50.917309 
	C50.869461,50.857082 50.876484,51.085190 50.934170,51.623314 
	C50.970078,55.105934 50.948303,58.050423 50.479927,60.997322 
	C47.066917,61.044445 44.100506,61.089169 41.061790,61.059044 
	C40.989483,60.984200 40.845577,60.833832 40.884132,60.396057 
	C40.963261,57.024937 41.003830,54.091599 41.044403,51.158257 
z"/>
<path fill="#B26411" opacity="1.000000" stroke="none" 
	d="
M40.588684,51.097343 
	C41.003830,54.091599 40.963261,57.024937 40.448532,60.440758 
	C37.056740,61.022633 34.139099,61.122028 31.221460,61.221420 
	C31.221460,61.221420 31.051662,61.052799 30.966724,60.968529 
	C30.881784,57.795353 30.881784,54.706448 30.881784,51.036427 
	C34.320530,51.036427 37.226749,51.036427 40.588684,51.097343 
z"/>
<path fill="#541209" opacity="1.000000" stroke="none" 
	d="
M121.103241,131.094254 
	C121.149658,131.495697 121.095215,131.818054 121.081833,132.142105 
	C120.722168,140.849731 120.722878,140.849762 111.611603,141.134369 
	C111.172501,141.185028 111.015747,141.021713 110.981323,140.501541 
	C111.009995,137.034714 111.073097,134.088058 111.575897,131.097260 
	C114.963226,130.988358 117.910866,130.923615 120.858513,130.858856 
	C120.858513,130.858856 121.021523,131.015945 121.103241,131.094254 
z"/>
<path fill="#541209" opacity="1.000000" stroke="none" 
	d="
M60.961388,141.065704 
	C60.985462,144.033859 61.009537,147.002029 61.048508,150.410828 
	C60.899372,150.865997 60.735611,150.887726 60.571255,150.894058 
	C51.161999,151.256592 51.161995,151.256470 50.865646,141.611649 
	C50.814976,141.172516 50.978291,141.015762 51.504116,140.981430 
	C55.042126,140.933517 58.054314,140.919922 61.058372,140.958160 
	C61.050251,141.009964 60.961391,141.065704 60.961388,141.065704 
z"/>
<path fill="#752802" opacity="1.000000" stroke="none" 
	d="
M91.196907,31.107965 
	C91.133652,34.098812 91.070389,37.089657 91.013885,40.530037 
	C91.020630,40.979576 91.004471,40.995571 90.543831,41.000732 
	C87.058990,41.007454 84.034782,41.009018 81.003082,41.003056 
	C80.995590,40.995525 80.979607,40.979347 80.979599,40.979347 
	C81.004776,37.933380 81.029953,34.887417 81.538208,31.403416 
	C84.938713,30.946512 87.856140,30.927649 90.878815,30.959810 
	C90.984070,31.010836 91.196907,31.107965 91.196907,31.107965 
z"/>
<path fill="#542409" opacity="1.000000" stroke="none" 
	d="
M100.846191,20.947351 
	C100.861015,21.111244 100.883087,21.274847 100.889618,21.439066 
	C101.265839,30.906401 101.265701,30.906406 91.637016,31.077728 
	C91.196907,31.107965 90.984070,31.010836 90.947189,30.514898 
	C90.936722,26.994411 90.963127,23.969862 90.989525,20.945312 
	C90.989525,20.945312 90.943161,20.991224 91.382736,20.978069 
	C94.830276,20.959063 97.838234,20.953207 100.846191,20.947351 
z"/>
<path fill="#B26411" opacity="1.000000" stroke="none" 
	d="
M90.534210,20.966515 
	C90.963127,23.969862 90.936722,26.994411 90.841934,30.463873 
	C87.856140,30.927649 84.938713,30.946512 81.582352,30.947323 
	C81.143402,27.838289 81.143402,24.747311 81.143402,20.987715 
	C84.274582,20.987715 87.176743,20.987715 90.534210,20.966515 
z"/>
<path fill="#752802" opacity="1.000000" stroke="none" 
	d="
M70.832008,51.092762 
	C70.876305,48.074257 70.920609,45.055748 70.946472,41.590252 
	C73.975563,41.093136 77.023094,41.043011 80.525116,40.986115 
	C80.979607,40.979347 80.995590,40.995525 81.000748,41.456337 
	C81.003174,44.943993 81.000458,47.970840 80.545540,50.997948 
	C77.087624,50.995319 74.081917,50.992424 71.034271,51.060562 
	C70.992332,51.131588 70.832008,51.092762 70.832008,51.092762 
z"/>
<path fill="#752802" opacity="1.000000" stroke="none" 
	d="
M100.894592,20.498413 
	C97.838234,20.953207 94.830276,20.959063 91.364365,20.951109 
	C90.937508,19.611685 90.983246,18.286224 90.997147,16.960426 
	C91.060074,10.959796 91.964500,10.085976 98.021133,11.153908 
	C99.140488,11.351278 100.543816,12.928934 100.840553,14.113822 
	C101.308807,15.983656 100.951088,18.060341 100.894592,20.498413 
z"/>
<path fill="#DBA213" opacity="1.000000" stroke="none" 
	d="
M121.133568,70.872879 
	C124.190681,70.872879 127.247787,70.872879 131.061691,70.872879 
	C131.061691,74.380417 131.061691,77.253365 131.132568,80.577026 
	C131.203430,81.027725 131.025726,81.115700 130.501358,81.056519 
	C127.016205,80.964149 124.055428,80.930954 121.065857,80.456772 
	C120.966835,77.068596 120.896591,74.121399 120.903061,71.098785 
	C120.979782,71.023369 121.133568,70.872879 121.133568,70.872879 
z"/>
<path fill="#DBA213" opacity="1.000000" stroke="none" 
	d="
M100.963303,51.159393 
	C103.964897,51.120968 106.966476,51.082542 110.411484,51.094856 
	C110.916191,54.092533 110.977463,57.039471 111.007782,60.503410 
	C110.976822,61.020412 110.826065,61.173939 110.387436,61.123886 
	C106.990143,60.981186 104.031487,60.888535 101.055191,60.359123 
	C101.012802,57.001369 100.988052,54.080383 100.963303,51.159393 
z"/>
<path fill="#DBA213" opacity="1.000000" stroke="none" 
	d="
M111.052032,60.943485 
	C114.108604,60.866558 117.089966,60.866558 121.040520,60.866558 
	C121.040520,64.180283 121.040520,67.081177 121.087044,70.427475 
	C121.133568,70.872879 120.979782,71.023369 120.463181,71.048492 
	C116.962662,71.050819 113.978729,71.028015 110.996445,70.554573 
	C110.940750,67.127274 110.883408,64.150604 110.826065,61.173939 
	C110.826065,61.173939 110.976822,61.020412 111.052032,60.943485 
z"/>
<path fill="#DBA213" opacity="1.000000" stroke="none" 
	d="
M31.163368,61.671379 
	C34.139099,61.122028 37.056740,61.022633 40.409981,60.878536 
	C40.845577,60.833832 40.989483,60.984200 41.022366,61.516289 
	C41.081657,68.342102 41.108063,74.635818 41.099312,81.387566 
	C40.793129,92.577728 41.015629,90.826073 49.994385,91.009880 
	C50.324299,91.016632 50.654308,91.018990 50.992516,91.011322 
	C51.000763,90.999229 50.976593,91.015709 50.982910,91.468170 
	C51.089539,101.711472 50.034077,100.968323 60.195469,100.999870 
	C60.527733,101.000908 60.860016,101.001709 61.192272,100.999756 
	C72.294273,100.934265 70.861343,101.954353 71.462624,91.027168 
	C74.919212,90.966141 77.924347,90.915848 81.387764,90.901123 
	C91.373444,91.266624 90.988655,89.521889 91.016304,100.037888 
	C91.017174,100.368683 91.026291,100.699455 90.575287,101.022156 
	C88.302032,101.019310 86.455605,100.830093 84.678543,101.099106 
	C83.520905,101.274361 81.602150,102.007339 81.517632,102.678497 
	C81.218727,105.052292 80.672951,108.292549 81.919556,109.704597 
	C83.106354,111.048889 86.613266,111.173134 88.720001,110.549553 
	C89.882721,110.205391 90.475769,107.273468 90.928665,105.411575 
	C91.269554,104.010117 90.979141,102.455093 91.425148,100.975937 
	C92.710327,100.988304 93.551804,100.904686 94.367950,101.012627 
	C99.081467,101.635994 101.739952,100.193359 101.060524,94.853058 
	C100.715179,92.138680 102.238152,90.909668 104.935143,91.012756 
	C106.923973,91.088776 108.916092,91.078949 110.933464,91.568344 
	C110.961159,98.365181 110.962135,104.701042 110.977478,111.022522 
	C110.991859,111.008141 111.020615,110.979385 110.565689,110.984451 
	C100.465446,111.109795 100.984932,109.891678 101.011383,120.036713 
	C101.012245,120.366638 101.020660,120.696548 100.555534,121.020096 
	C96.961525,121.009148 93.836929,120.962662 90.713661,121.007721 
	C80.570763,121.154045 80.839180,119.411514 80.615265,130.897369 
	C69.702324,131.207123 71.250694,130.051743 70.931572,140.377045 
	C70.926498,140.541214 70.914345,140.705139 70.905495,140.869186 
	C67.893181,140.919464 64.880867,140.969727 61.414970,141.042847 
	C60.961391,141.065704 61.050251,141.009964 61.041656,140.510956 
	C60.803162,130.558273 62.369049,130.979233 51.960991,131.008774 
	C51.632290,131.009705 51.303593,131.014359 50.974895,131.017288 
	C50.974895,131.017288 51.000706,130.999390 50.995884,130.556824 
	C51.048401,119.436569 51.276611,121.231110 42.112778,120.955284 
	C41.785255,120.945427 41.458130,120.922394 41.130817,120.905502 
	C41.130817,117.920853 41.130817,114.936203 41.130817,110.955780 
	C37.829346,110.955780 34.930984,110.955780 31.588871,110.905090 
	C31.084869,104.576683 31.024626,98.298950 30.922344,91.561401 
	C30.955297,81.441490 31.030285,71.781410 31.163368,61.671379 
M70.971840,114.691010 
	C71.084923,111.836014 69.443832,110.690491 66.909622,111.085274 
	C64.977409,111.386276 61.920998,111.858093 61.522053,113.004593 
	C60.795910,115.091415 60.876743,118.370270 62.133263,119.944733 
	C63.121891,121.183525 66.642532,121.299057 68.548080,120.591965 
	C69.810280,120.123596 70.206055,117.320305 70.971840,114.691010 
z"/>
<path fill="#B26411" opacity="1.000000" stroke="none" 
	d="
M71.379158,140.904358 
	C70.914345,140.705139 70.926498,140.541214 70.931572,140.377045 
	C71.250694,130.051743 69.702324,131.207123 81.061218,130.941269 
	C84.950287,131.010254 87.936317,131.068787 90.941711,131.569885 
	C90.971901,134.967209 90.982727,137.921997 90.993561,140.876770 
	C90.993561,140.876770 91.127861,141.038925 91.105911,141.141937 
	C84.673584,141.143158 78.263199,141.041336 71.379158,140.904358 
z"/>
<path fill="#ECCB45" opacity="1.000000" stroke="none" 
	d="
M121.094643,80.897758 
	C124.055428,80.930954 127.016205,80.964149 130.419769,81.000198 
	C130.898682,87.351379 130.934799,93.699707 130.463287,100.516037 
	C127.001984,101.023460 124.048294,101.062874 121.071175,100.625900 
	C121.063377,93.732262 121.079010,87.315010 121.094643,80.897758 
z"/>
<path fill="#DBA213" opacity="1.000000" stroke="none" 
	d="
M121.094604,101.102280 
	C124.048294,101.062874 127.001984,101.023460 130.396530,100.978539 
	C130.881943,103.978203 130.926498,106.983391 130.925125,110.434082 
	C127.921135,110.929100 124.963066,110.978615 121.487488,110.997879 
	C120.969971,110.967636 120.817917,110.817917 120.870209,110.380592 
	C120.979866,106.996269 121.037231,104.049278 121.094604,101.102280 
z"/>
<path fill="#DBA213" opacity="1.000000" stroke="none" 
	d="
M91.443878,140.923553 
	C90.982727,137.921997 90.971901,134.967209 91.400093,131.536957 
	C94.897736,131.038834 97.956360,131.016205 101.011284,131.444397 
	C100.979752,134.881989 100.951920,137.868744 100.924088,140.855515 
	C97.914124,140.893784 94.904152,140.932068 91.443878,140.923553 
z"/>
<path fill="#B26411" opacity="1.000000" stroke="none" 
	d="
M101.377792,140.900269 
	C100.951920,137.868744 100.979752,134.881989 101.000671,131.445923 
	C100.993759,130.996628 100.993340,131.015915 101.444443,131.011292 
	C104.866066,130.940308 107.836594,130.873947 110.889412,130.891006 
	C110.971710,130.974426 111.136200,131.141403 111.136200,131.141403 
	C111.073097,134.088058 111.009995,137.034714 110.902702,140.420105 
	C107.849503,140.887589 104.840500,140.916306 101.377792,140.900269 
z"/>
<path fill="#DBA213" opacity="1.000000" stroke="none" 
	d="
M121.046165,111.042328 
	C121.069984,114.090424 121.017609,117.063828 120.466110,120.499489 
	C116.975853,120.979492 113.984726,120.997231 110.995697,120.558922 
	C111.005409,117.061707 111.013016,114.020546 111.020615,110.979385 
	C111.020615,110.979385 110.991859,111.008141 111.430466,111.011337 
	C114.852013,110.948997 117.834969,110.883461 120.817917,110.817917 
	C120.817917,110.817917 120.969971,110.967636 121.046165,111.042328 
z"/>
<path fill="#B26411" opacity="1.000000" stroke="none" 
	d="
M110.993599,121.014977 
	C113.984726,120.997231 116.975853,120.979492 120.411285,120.942780 
	C120.886101,123.938934 120.916603,126.954071 120.902809,130.414032 
	C117.910866,130.923615 114.963226,130.988358 111.575890,131.097260 
	C111.136200,131.141403 110.971710,130.974426 110.940720,130.453766 
	C110.945129,126.953186 110.980522,123.973259 111.006279,120.993561 
	C110.996643,120.993774 110.993599,121.014977 110.993599,121.014977 
z"/>
<path fill="#B26411" opacity="1.000000" stroke="none" 
	d="
M41.096062,121.359741 
	C41.458130,120.922394 41.785255,120.945427 42.112778,120.955284 
	C51.276611,121.231110 51.048401,119.436569 50.986870,130.569672 
	C47.977142,130.989594 44.971607,130.954132 41.521969,130.850708 
	C41.072350,127.793167 41.066830,124.803566 41.096062,121.359741 
z"/>
<path fill="#FEFFE6" opacity="1.000000" stroke="none" 
	d="
M50.926525,60.994915 
	C50.948303,58.050423 50.970078,55.105934 50.971031,51.731308 
	C53.986076,51.207302 57.021938,51.113438 60.524162,51.515015 
	C61.044323,54.990284 61.098125,57.970116 60.690952,60.961151 
	C57.229267,60.946491 54.228554,60.920624 51.128593,60.847836 
	C51.029346,60.800915 50.926525,60.994915 50.926525,60.994915 
z"/>
<path fill="#DBA213" opacity="1.000000" stroke="none" 
	d="
M61.151928,60.949944 
	C61.098125,57.970116 61.044323,54.990284 60.972969,51.568394 
	C63.951420,51.099827 66.947426,51.073322 70.387718,51.069790 
	C70.832008,51.092762 70.992332,51.131588 71.006042,51.509155 
	C71.013542,54.869053 71.007332,57.851387 70.552834,60.900715 
	C67.079155,60.940624 64.053757,60.913544 61.044495,60.931061 
	C61.060627,60.975658 61.151928,60.949944 61.151928,60.949944 
z"/>
<path fill="#542409" opacity="1.000000" stroke="none" 
	d="
M80.997742,50.997688 
	C81.000458,47.970840 81.003174,44.943993 81.008240,41.463867 
	C84.034782,41.009018 87.058990,41.007454 90.536301,41.008236 
	C90.991531,44.028690 90.993645,47.046795 91.049744,50.521526 
	C91.103737,50.978149 91.097229,51.089725 90.637100,51.063438 
	C87.125481,51.032276 84.073990,51.027401 81.016174,51.016197 
	C81.009857,51.009865 80.997734,50.997688 80.997742,50.997688 
z"/>
<path fill="#ECCB45" opacity="1.000000" stroke="none" 
	d="
M100.514229,51.097221 
	C100.988052,54.080383 101.012802,57.001369 101.023567,60.470024 
	C101.009583,61.017693 100.939766,61.237350 100.491684,61.170193 
	C97.023514,61.153332 94.003433,61.203629 90.912003,61.180153 
	C90.840645,61.106388 90.917282,60.915974 90.945175,60.469799 
	C91.014458,57.045658 91.055840,54.067692 91.097229,51.089725 
	C91.097229,51.089725 91.103737,50.978149 91.048218,50.973434 
	C94.016853,50.990829 97.041008,51.012939 100.514229,51.097221 
z"/>
<path fill="#B26411" opacity="1.000000" stroke="none" 
	d="
M50.982773,131.466949 
	C51.303593,131.014359 51.632290,131.009705 51.960991,131.008774 
	C62.369049,130.979233 60.803162,130.558273 61.049782,140.459152 
	C58.054314,140.919922 55.042126,140.933517 51.585548,140.902817 
	C51.090988,137.877899 51.040817,134.897263 50.982773,131.466949 
z"/>
<path fill="#EAEE57" opacity="1.000000" stroke="none" 
	d="
M80.929489,90.865555 
	C77.924347,90.915848 74.919212,90.966141 71.459572,90.570831 
	C71.002663,88.961525 70.934425,87.793518 71.010239,86.634933 
	C71.234993,83.199844 70.563103,80.891960 66.243950,80.918877 
	C62.407803,80.942787 60.606819,82.232826 60.993690,86.146126 
	C61.361458,89.866180 59.526897,91.281166 55.962166,91.015961 
	C54.309448,90.893005 52.639004,91.008377 50.976593,91.015701 
	C50.976593,91.015709 51.000763,90.999229 50.996334,90.556160 
	C51.008770,81.112816 51.008766,81.113022 42.109909,80.965126 
	C41.784653,80.959717 41.459610,80.941689 41.134468,80.929535 
	C41.108063,74.635818 41.081657,68.342102 41.094673,61.591133 
	C44.100506,61.089169 47.066917,61.044445 50.479927,60.997322 
	C50.926525,60.994915 51.029346,60.800915 51.073410,61.304310 
	C50.787281,71.168900 50.787289,71.169197 60.114449,70.941635 
	C60.446835,70.933540 60.778774,70.907326 61.570580,70.926842 
	C71.648613,70.939926 81.266983,70.915726 91.345634,70.917534 
	C94.838364,70.930138 97.870811,70.916725 100.951714,70.951744 
	C101.000168,71.000168 101.097046,71.097046 101.070496,71.540459 
	C100.912697,80.998299 100.912697,80.998306 91.809059,81.000000 
	C91.479889,81.000061 91.150711,81.001572 90.821548,80.999763 
	C79.210052,80.936035 81.302841,80.782921 80.929489,90.865555 
z"/>
<path fill="#542409" opacity="1.000000" stroke="none" 
	d="
M71.001122,60.833721 
	C71.007332,57.851387 71.013542,54.869053 71.047974,51.438126 
	C74.081917,50.992424 77.087624,50.995319 80.545532,50.997948 
	C80.997734,50.997688 81.009857,51.009865 81.008972,51.463570 
	C81.001854,54.889923 80.995621,57.862572 80.541534,60.908989 
	C77.062836,60.933083 74.031975,60.883404 71.001122,60.833721 
z"/>
<path fill="#EAEE57" opacity="1.000000" stroke="none" 
	d="
M120.870209,110.380600 
	C117.834969,110.883461 114.852013,110.948997 111.416084,111.025719 
	C110.962135,104.701042 110.961159,98.365181 110.956474,91.091469 
	C110.970032,83.767555 110.987297,77.381493 111.002342,70.997658 
	C111.000122,70.999878 110.994804,71.005211 110.994804,71.005203 
	C113.978729,71.028015 116.962662,71.050819 120.386467,71.123917 
	C120.896591,74.121399 120.966835,77.068596 121.065857,80.456772 
	C121.079010,87.315010 121.063377,93.732262 121.071175,100.625900 
	C121.037231,104.049278 120.979866,106.996269 120.870209,110.380600 
z"/>
<path fill="#EAEE57" opacity="1.000000" stroke="none" 
	d="
M110.387436,61.123886 
	C110.883408,64.150604 110.940750,67.127274 110.996445,70.554581 
	C110.994804,71.005211 111.000122,70.999878 110.549057,70.998810 
	C107.097679,71.030846 104.097366,71.063942 101.097046,71.097046 
	C101.097046,71.097046 101.000168,71.000168 100.979263,70.512405 
	C100.952164,67.095543 100.945969,64.166443 100.939766,61.237350 
	C100.939766,61.237350 101.009583,61.017693 101.041206,60.906788 
	C104.031487,60.888535 106.990143,60.981186 110.387436,61.123886 
z"/>
<path fill="#ECCB45" opacity="1.000000" stroke="none" 
	d="
M101.070496,71.540451 
	C104.097366,71.063942 107.097679,71.030846 110.551285,70.996590 
	C110.987297,77.381493 110.970032,83.767555 110.929756,90.630486 
	C108.916092,91.078949 106.923973,91.088776 104.935143,91.012756 
	C102.238152,90.909668 100.715179,92.138680 101.060524,94.853058 
	C101.739952,100.193359 99.081467,101.635994 94.367950,101.012627 
	C93.551804,100.904686 92.710327,100.988304 91.440468,100.991524 
	C91.000389,100.999603 91.031563,101.030243 91.031563,101.030243 
	C91.026291,100.699455 91.017174,100.368683 91.016304,100.037888 
	C90.988655,89.521889 91.373444,91.266624 81.387764,90.901131 
	C81.302841,80.782921 79.210052,80.936035 90.821548,80.999763 
	C91.150711,81.001572 91.479889,81.000061 91.809059,81.000000 
	C100.912697,80.998306 100.912697,80.998299 101.070496,71.540451 
z"/>
<path fill="#ECCB45" opacity="1.000000" stroke="none" 
	d="
M50.982910,91.468163 
	C52.639004,91.008377 54.309448,90.893005 55.962166,91.015961 
	C59.526897,91.281166 61.361458,89.866180 60.993690,86.146126 
	C60.606819,82.232826 62.407803,80.942787 66.243950,80.918877 
	C70.563103,80.891960 71.234993,83.199844 71.010239,86.634933 
	C70.934425,87.793518 71.002663,88.961525 71.008125,90.581573 
	C70.861343,101.954353 72.294273,100.934265 61.192272,100.999756 
	C60.860016,101.001709 60.527733,101.000908 60.195469,100.999870 
	C50.034077,100.968323 51.089539,101.711472 50.982910,91.468163 
z"/>
<path fill="#ECCB45" opacity="1.000000" stroke="none" 
	d="
M101.004372,130.995087 
	C97.956360,131.016205 94.897736,131.038834 91.380737,131.094391 
	C87.936317,131.068787 84.950287,131.010254 81.518295,130.907806 
	C80.839180,119.411514 80.570763,121.154045 90.713661,121.007721 
	C93.836929,120.962662 96.961525,121.009148 100.541443,121.005684 
	C100.997368,120.997650 100.969551,120.969551 100.977631,121.426346 
	C100.988258,124.927399 100.990799,127.971657 100.993340,131.015915 
	C100.993340,131.015915 100.993759,130.996628 101.004372,130.995087 
z"/>
<path fill="#ECCB45" opacity="1.000000" stroke="none" 
	d="
M70.980774,115.126656 
	C70.206055,117.320305 69.810280,120.123596 68.548080,120.591965 
	C66.642532,121.299057 63.121891,121.183525 62.133263,119.944733 
	C60.876743,118.370270 60.795910,115.091415 61.522053,113.004593 
	C61.920998,111.858093 64.977409,111.386276 66.909622,111.085274 
	C69.443832,110.690491 71.084923,111.836014 70.980774,115.126656 
z"/>
<path fill="#ECCB45" opacity="1.000000" stroke="none" 
	d="
M110.565689,110.984451 
	C111.013016,114.020546 111.005409,117.061707 110.995697,120.558922 
	C110.993599,121.014977 110.996643,120.993774 110.550064,120.995728 
	C107.058838,120.988297 104.014198,120.978920 100.969551,120.969551 
	C100.969551,120.969551 100.997368,120.997650 101.011459,121.012054 
	C101.020660,120.696548 101.012245,120.366638 101.011383,120.036713 
	C100.984932,109.891678 100.465446,111.109795 110.565689,110.984451 
z"/>
<path fill="#ECCB45" opacity="1.000000" stroke="none" 
	d="
M41.099312,81.387566 
	C41.459610,80.941689 41.784653,80.959717 42.109909,80.965126 
	C51.008766,81.113022 51.008770,81.112816 50.988091,90.568253 
	C50.654308,91.018990 50.324299,91.016632 49.994385,91.009880 
	C41.015629,90.826073 40.793129,92.577728 41.099312,81.387566 
z"/>
<path fill="#ECCB45" opacity="1.000000" stroke="none" 
	d="
M90.985069,100.984016 
	C90.979141,102.455093 91.269554,104.010117 90.928665,105.411575 
	C90.475769,107.273468 89.882721,110.205391 88.720001,110.549553 
	C86.613266,111.173134 83.106354,111.048889 81.919556,109.704597 
	C80.672951,108.292549 81.218727,105.052292 81.517632,102.678497 
	C81.602150,102.007339 83.520905,101.274361 84.678543,101.099106 
	C86.455605,100.830093 88.302032,101.019310 90.575287,101.022156 
	C91.031563,101.030243 91.000389,100.999603 90.985069,100.984016 
z"/>
<path fill="#DBA213" opacity="1.000000" stroke="none" 
	d="
M100.977631,121.426346 
	C104.014198,120.978920 107.058838,120.988297 110.559700,120.995506 
	C110.980522,123.973259 110.945129,126.953186 110.858429,130.370346 
	C107.836594,130.873947 104.866066,130.940308 101.444443,131.011292 
	C100.990799,127.971657 100.988258,124.927399 100.977631,121.426346 
z"/>
<path fill="#F6F892" opacity="1.000000" stroke="none" 
	d="
M61.110924,70.889557 
	C60.778774,70.907326 60.446835,70.933540 60.114449,70.941635 
	C50.787289,71.169197 50.787281,71.168900 51.172661,61.351231 
	C54.228554,60.920624 57.229267,60.946491 60.690952,60.961151 
	C61.151928,60.949944 61.060627,60.975658 61.036995,61.391312 
	C61.045887,64.834488 61.078407,67.862022 61.110924,70.889557 
z"/>
<path fill="#FEFFE6" opacity="1.000000" stroke="none" 
	d="
M61.570583,70.926834 
	C61.078407,67.862022 61.045887,64.834488 61.020866,61.346710 
	C64.053757,60.913544 67.079155,60.940624 70.552834,60.900715 
	C74.031975,60.883404 77.062836,60.933083 80.989395,60.978630 
	C84.895821,60.954990 87.906555,60.935482 90.917282,60.915974 
	C90.917282,60.915974 90.840645,61.106388 90.911285,61.613937 
	C90.949730,65.044830 90.917542,67.968170 90.885353,70.891525 
	C81.266983,70.915726 71.648613,70.939926 61.570583,70.926834 
z"/>
<path fill="#B26411" opacity="1.000000" stroke="none" 
	d="
M90.945175,60.469799 
	C87.906555,60.935482 84.895821,60.954990 81.437241,60.904861 
	C80.995621,57.862572 81.001854,54.889923 81.015289,51.469902 
	C84.073990,51.027401 87.125481,51.032276 90.637100,51.063438 
	C91.055840,54.067692 91.014458,57.045658 90.945175,60.469799 
z"/>
<path fill="#F6F892" opacity="1.000000" stroke="none" 
	d="
M91.345634,70.917526 
	C90.917542,67.968170 90.949730,65.044830 90.982635,61.687702 
	C94.003433,61.203629 97.023514,61.153332 100.491684,61.170193 
	C100.945969,64.166443 100.952164,67.095543 100.930817,70.463974 
	C97.870811,70.916725 94.838364,70.930138 91.345634,70.917526 
z"/>
</svg>